<svg xmlns="http://www.w3.org/2000/svg" height="20" width="33" version="1.1" viewBox="0 0 33.000003 19.999999">
 <g transform="translate(.26984 -.032344)">
  <rect fill-rule="evenodd" rx="3" ry="3" height="19.57" width="32.095" stroke="#868686" y=".24734" x=".18266" stroke-width=".36531" fill="#fff"/>
  <path d="m13.743 5.9773-1.3246 8.2428h2.1172l1.3238-8.2428zm6.3862 3.3576c-0.73986-0.36537-1.1934-0.61196-1.1934-0.98564 0.009-0.33976 0.38354-0.68785 1.2198-0.68785 0.68785-0.0173 1.1934 0.14438 1.577 0.30521l0.19214 0.0858 0.28784-1.7246c-0.41819-0.16165-1.0812-0.33977-1.9003-0.33977-2.0908 0-3.563 1.087-3.5721 2.6418-0.0173 1.1473 1.054 1.7839 1.8558 2.1658 0.81901 0.39177 1.0978 0.64578 1.0978 0.99387-0.009 0.53442-0.66225 0.78101-1.2718 0.78101-0.84452 0-1.2982-0.127-1.9868-0.42479l-0.2788-0.127-0.29607 1.7922c0.49734 0.22108 1.412 0.41566 2.3613 0.42561 2.2219 0 3.6677-1.0706 3.6859-2.7275 0.007-0.90892-0.55768-1.6051-1.7783-2.1742zm7.5111-3.3321h-1.638c-0.50476 0-0.8883 0.14518-1.1068 0.66315l-3.1449 7.5541h2.2219l0.61195-1.6355h2.4859l0.3175 1.6421h1.9597zm-2.4397 4.9312c0.0429 0.004 0.85284-2.6698 0.85284-2.6698l0.64497 2.6698h-1.4978zm-14.551-4.9568-2.0743 5.6002-0.22596-1.1044c-0.38355-1.2743-1.586-2.659-2.928-3.3469l1.8994 7.0856h2.2401l3.3288-8.2336h-2.2401z" stroke-width=".090458" fill="#2394bc"/>
  <path d="m7.6527 7.0373c-0.1617-0.6285-0.6772-1.0524-1.3773-1.0614h-3.2851l-0.0338 0.15251c2.5626 0.63176 4.7135 2.5757 5.4113 4.4042z" stroke-width=".090458" fill="#efc75e"/>
 </g>
</svg>
