<svg version="1.1" viewBox="0 0 44 34" xml:space="preserve" xmlns="http://www.w3.org/2000/svg">
<g transform="matrix(.082119 0 0 .082119 1.306 -3.694)" fill="#333"><g class="st0" opacity=".79"><path class="st1" d="m456.8 243.2c-7.2 0-12.8 8-12.8 20.8 0 8 3.2 12.8 8.8 12.8 8.8 0 12.8-11.2 12.8-20 0-9.6-3.2-13.6-8.8-13.6z"/><path class="st1" d="m238.4 241.6c-8.8 0-10.4 10.4-10.4 11.2h17.6c0-0.8 1.6-11.2-7.2-11.2z"/><path class="st1" d="m363.2 272c0 2.4 1.6 6.4 6.4 6.4 9.6 0 11.2-12.8 11.2-15.2-0.8 0-0.8 0-3.2-0.8-12 0-14.4 5.6-14.4 9.6z"/><path class="st1" d="m352 100.8c-72.2 0-132.4 51.3-147 119.2h2.2l-1.6 9.6h8l-2.4 15.2h-8.8l-0.8 4.5v2.7c0 8.7 0.8 17.3 2.2 25.6 1.4-0.2 2.7-0.8 3.4-0.8l-1.7 9.4c15.6 66.8 75.8 117 147.3 117 84 0 151.2-68 151.2-151.2s-67.2-151.2-152-151.2zm-96.8 189.6s-4.8 2.4-16.8 2.4c-12.8 0-28-5.6-28-28 0-20 12-37.6 28.8-36 17.6 0 23.2 12.8 23.2 23.2 0 4-2.4 14.4-2.4 14.4h-32.8s-3.2 12.8 14.4 12.8c8 0 16.8-4 16.8-4zm22.4 0.8v0.8h-17.6l10.4-62.4h15.2l-1.6 8.8s5.6-9.6 12.8-9.6h3.2c-1.6 4-4 8-5.6 18.4-11.2-4-12 17.6-16.8 44zm62.4-0.8s-8.8 2.4-15.2 2.4c-19.2 0-28.8-13.6-28.8-33.6 0-30.4 18.4-46.4 36.8-46.4 8.8 0 18.4 4 18.4 4l-2.4 16.8s-6.4-4.8-14.4-4.8c-11.2 0-20.8 10.4-20.8 29.6 0 9.6 4.8 18.4 16 18.4 5.6 0 13.6-4 13.6-4zm37.6 0.8 0.8-6.4c-0.8 0-5.6 7.2-16.8 7.2-5.6 0-15.2-3.2-15.2-17.6 0-18.4 15.2-24 28.8-24h7.2s0.8-0.8 0.8-4c0-4.8-4.8-5.6-10.4-5.6-10.4 0-17.6 3.2-17.6 3.2l2.4-13.6s8-3.2 19.2-3.2c5.6 0 22.4 0.8 21.6 20l-6.4 44zm34.4 0v0.8h-17.6l10.4-62.4h15.2l-1.6 8.8s5.6-9.6 12.8-9.6h3.2c-1.6 4-4 8-5.6 18.4-11.2-4-12 17.6-16.8 44zm49.6 0.8 0.8-5.6s-5.6 6.4-15.2 6.4c-13.6 0-20-13.6-20-26.4 0-20.8 12.8-38.4 27.2-38.4 8.8 0 15.2 8 15.2 8l3.2-21.6 16.8 0.8-12 76.8z"/></g><path class="st1" d="m102.4 272c0 2.4 1.6 6.4 6.4 6.4 9.6 0 11.2-12.8 11.2-15.2 0 0-0.8 0-3.2-0.8-12 0-14.4 5.6-14.4 9.6z"/><path class="st1" d="m238.4 241.6c-8.8 0-10.4 10.4-10.4 11.2h17.6c0-0.8 1.6-11.2-7.2-11.2z"/><path class="st1" d="m299.4 277.3c-2.3-5.1-3.4-11.2-3.4-18.1 0-9.1 1.7-17 4.5-23.5-0.2-2.1-0.5-4.1-0.8-6.2-1.6 3.8-3.8 7.9-5.3 17.7-11.2-4-12 17.6-16.8 44v0.8h-17.6l10.4-62.4h15.2l-1.6 8.8s5.6-9.6 12.8-9.6h2.8c-0.4-2.7-0.8-5.3-1.2-8h-91.3l-1.5 8.8h8l-2.4 15.2h-8.8l-4.8 28c-0.8 1.6 0 4.8 5.6 4.8 1.6 0 3.2-0.8 4-0.8l-2.4 13.6c-1.6 0.8-5.6 2.4-10.4 2.4-7.2 0-12.8-4-12.8-13.6 0-6.4 9.6-59.2 9.6-59.2h14.5c0.8-5.3 2.3-9.9 3.9-15.2h83.2c-1.6-5.6-4-11.2-6.4-16h-70.4c2.4-5.6 5.6-10.4 8.8-16h53.6c-3.2-5.6-7.2-11.2-12-16h-29.6c4.8-5.6 9.6-10.4 15.2-15.2-31.061-25.09-48.561-36.042-102.4-40.8-82.4 0.8-149.6 68-149.6 151.2s67.2 151.2 151.2 151.2c39.2 0 74.4-15.2 101.6-39.2 5.6-4.8 10.4-10.4 15.2-16h-31.2c-4-4.8-8-10.4-11.2-15.2h53.6c3.2-4.8 6.4-10.4 8.8-16h-71.2c-2.4-4.8-4.8-10.4-6.4-16h83.2c2.4-7.6 4.4-15.5 5.8-23.5zm-235.4 13.9 8.8-57.6-20.8 57.6h-11.2l-1.6-57.6-9.6 57.6h-15.2l12.8-76.8h23.2l0.8 47.2 16-47.2h26.4l-12.8 76.8zm53.6 0 0.8-6.4c-0.8 0-5.6 7.2-16.8 7.2-5.6 0-15.2-3.2-15.2-17.6 0-18.4 15.2-24 28.8-24h7.2s0.8-0.8 0.8-4c0-4.8-4.8-5.6-10.4-5.6-10.4 0-17.6 3.2-17.6 3.2l2.4-13.6s8-3.2 19.2-3.2c5.6 0 21.6 0.8 21.6 20l-6.4 44zm60.8-48.8s-8.8-0.8-11.2-0.8c-5.6 0-8.8 1.6-8.8 5.6 0 8 19.2 4 19.2 24 0 21.6-20 20.8-24 20.8-13.6 0-17.6-1.6-18.4-3.2l2.4-14.4s7.2 2.4 14.4 2.4c4 0 9.6-0.8 9.6-5.6 0-7.2-20-5.6-20-24 0-16 12-20.8 24-20.8 9.6 0 15.2 1.6 15.2 1.6zm76.8 48s-4.8 2.4-16.8 2.4c-12.8 0-28-5.6-28-28 0-20 12-37.6 28.8-36 17.6 0 23.2 12.8 23.2 23.2 0 4-2.4 14.4-2.4 14.4h-32.8s-3.2 12.8 14.4 12.8c8 0 16.8-4 16.8-4z" fill="#333"/></g></svg>
