<svg xmlns="http://www.w3.org/2000/svg" version="1.1" enable-background="new 0 0 512 512" viewBox="0 0 90 90">
 <g fill-opacity=".94118" fill="#8a8a8f" transform="matrix(.18367 0 0 .18367 -2.0203 -2.0099)">
  <path d="m490.1 94.3h-325.6c-7.8 0-12.4 5.5-10.4 13.6l47 161.7c1 4.2 5.2 7.3 10.4 7.3h232.7c5.2 0 9.4-3.1 10.4-7.3l45.9-161.7c1.8-5.3-1-13.6-10.4-13.6zm-53.2 160.7h-217.1l-9.4-32.3h235.9zm14.6-53.3h-247.7l-9.3-32.3h266.4zm15.6-54.2h-278.6l-9.4-32.3h297.5z"/>
  <path d="m107.1 24.3c-1-5.2-5.2-8.3-10.4-8.3h-85.7v20.9h77.2l71 285.9c1 5.2 5.2 8.3 10.4 8.3h275.5v-21.9h-267.1z"/>
  <rect height="20.9" width="243.2" y="363.5" x="169.7"/>
  <path d="m400.3 412.5c-23 0-41.7 18.8-41.7 41.7 0 23 18.8 41.7 41.7 41.7s41.7-18.8 41.7-41.7c0.1-22.9-18.7-41.7-41.7-41.7zm0 61.6c-10.4 0-19.8-9.4-19.8-19.8s8.3-19.8 19.8-19.8 19.8 9.4 19.8 19.8c0.1 10.4-9.3 19.8-19.8 19.8z"/>
  <path d="m197.9 412.5c-23 0-41.7 18.8-41.7 41.7 0 23 18.8 41.7 41.7 41.7s41.7-18.8 41.7-41.7-18.8-41.7-41.7-41.7zm0 61.6c-10.4 0-19.8-9.4-19.8-19.8s8.3-19.8 19.8-19.8c10.4 0 19.8 9.4 19.8 19.8s-9.4 19.8-19.8 19.8z"/>
 </g>
</svg>
