<svg xmlns="http://www.w3.org/2000/svg" style="display: none;">

  <!-- Checkout Success icon -->
  <symbol id="success" viewBox="0 0 5.890625 5.890625">
    <g stroke-width=".11328" fill="#058dbf">
      <path d="m2.9453 0c-1.624 0-2.9453 1.3212-2.9453 2.9453s1.3213 2.9453 2.9453 2.9453 2.9453-1.3212 2.9453-2.9453-1.3213-2.9453-2.9453-2.9453zm0 5.6641c-1.4991 0-2.7188-1.2197-2.7188-2.7188s1.2197-2.7188 2.7188-2.7188 2.7188 1.2197 2.7188 2.7188-1.2197 2.7188-2.7188 2.7188z"/><path d="m4.3332 1.7373-1.741 1.9586-1.0489-0.8391c-0.048711-0.039082-0.12019-0.031039-0.15916 0.017672-0.039082 0.048938-0.031152 0.12019 0.017672 0.15927l1.1328 0.90625c0.020844 0.016652 0.045879 0.024809 0.070801 0.024809 0.031266 0 0.062418-0.012914 0.084734-0.038063l1.8125-2.0391c0.041574-0.046672 0.037383-0.11838-0.0094-0.15984-0.046899-0.041688-0.11838-0.037496-0.16007 0.0094z"/>
    </g>
  </symbol>

  <!-- Checkout Credit card icon -->
  <symbol id="credit" viewBox="0 0 40 25">
    <g transform="matrix(.13708 0 0 .13708 0 -7.5)">
      <path fill="#e2574c" d="m182.3 145.9c0 50.366-40.801 91.176-91.149 91.176-50.35-0.01-91.151-40.83-91.151-91.18 0-50.362 40.811-91.181 91.149-91.181s91.149 40.819 91.149 91.176z"/>
      <path fill="#f4b459" d="m200.62 54.719c-20.442 0-39.261 6.811-54.469 18.181l0.073 0.009c2.991 2.89 6.291 4.924 8.835 8.251l-18.965 0.301c-2.972 3-5.68 6.264-8.233 9.656h33.43c2.544 3.054 4.896 5.708 7.03 9.081h-46.536c-1.705 2.936-3.282 5.954-4.659 9.09h56.493c1.477 3.127 2.799 5.489 3.921 8.799h-63.76c-1.012 3.146-1.878 6.364-2.535 9.646h68.966c0.675 3.155 1.194 6.072 1.55 9.045h-71.884c-0.301 3-0.456 6.045-0.456 9.118h72.859c0 3.228-0.228 6.218-0.556 9.118h-71.847c0.31 3.091 0.766 6.127 1.368 9.118h68.856c-0.711 2.954-1.532 5.926-2.562 9.008h-63.969c0.966 3.118 2.143 6.145 3.428 9.099h56.621c-1.568 3.319-3.346 5.972-5.306 9.081h-46.691c1.842 3.191 3.875 6.236 6.081 9.154l33.589 0.501c-2.863 3.437-6.537 5.507-9.884 8.516 0.182 0.146-5.352-0.018-16.248-0.191 16.576 17.105 39.744 27.772 65.446 27.772 50.357 0 91.176-40.82 91.176-91.176s-40.81-91.177-91.175-91.177z"/>
    </g>
  </symbol>

  <!-- Cart icon -->
  <symbol id="cart" viewBox="0 0 110 110">
    <g fill="#8a8a8f" transform="matrix(.21484 0 0 .21484 .000096683 86.367)">
      <path d="m214.68 0.82901c-24.829 0-45.029 20.2-45.029 45.029s20.2 45.029 45.029 45.029 45.029-20.2 45.029-45.029c-0.001-24.829-20.201-45.029-45.029-45.029zm0 64.914c-10.966 0-19.887-8.922-19.887-19.887 0-10.966 8.922-19.887 19.887-19.887s19.887 8.922 19.887 19.887c0 10.967-8.922 19.887-19.887 19.887z"/>
      <path d="m372.63 0.82901c-24.829 0-45.029 20.2-45.029 45.029s20.2 45.029 45.029 45.029 45.029-20.2 45.029-45.029c-0.001-24.829-20.201-45.029-45.029-45.029zm0 64.914c-10.966 0-19.887-8.922-19.887-19.887 0-10.966 8.922-19.887 19.887-19.887 10.966 0 19.887 8.922 19.887 19.887 0 10.967-8.922 19.887-19.887 19.887z"/>
      <path d="m383.72-236.24h-180.15c-6.943 0-12.571 5.628-12.571 12.571s5.629 12.571 12.571 12.571h180.15c6.943 0 12.571-5.628 12.571-12.571 0-6.944-5.628-12.571-12.571-12.571z"/>
      <path d="m373.91-170.96h-160.54c-6.943 0-12.571 5.628-12.571 12.571s5.628 12.571 12.571 12.571h160.54c6.943 0 12.571-5.628 12.571-12.571 0-6.942-5.628-12.571-12.57-12.571z"/>
      <path d="m506.34-292.25c-4.794-5.884-11.898-9.258-19.489-9.258h-391.57l-7.908-38.389c-1.651-8.008-7.113-14.732-14.614-17.989l-55.177-23.95c-6.37-2.767-13.773 0.156-16.536 6.524-2.766 6.37 0.157 13.774 6.524 16.537l55.178 23.951 60.826 295.26c2.396 11.628 12.752 20.068 24.625 20.068h301.17c6.943 0 12.571-5.628 12.571-12.571s-5.628-12.571-12.571-12.571h-301.17l-7.399-35.916h310.89c11.872 0 22.229-8.44 24.624-20.068l35.163-170.68c1.531-7.432-0.341-15.071-5.136-20.954zm-54.651 186.56h-316.07l-35.161-170.67 386.39 0.001z"/>
    </g>
  </symbol>

  <!-- Close icon -->
  <symbol id="close" viewBox="0 0 24 24">
    <g transform="scale(.039062)">
      <polygon points="0 576 35.478 611.4 306 341.41 576.52 611.4 612 576 341.46 306.01 612 36.004 576.52 0.603 306 270.61 35.478 0.603 0 36.004 270.52 306.01"/>
    </g>
  </symbol>

  <!-- Logout icon -->
  <symbol id="logout" viewBox="0 0 60 60">
    <g transform="matrix(.11719 0 0 .11719 1.5234 0)">
      <path d="m270.67 384c-5.9 0-10.67 4.77-10.67 10.67v74.667c0 11.76-9.573 21.333-21.333 21.333h-196c-11.76 0-21.333-9.573-21.333-21.333v-426.67c0-11.76 9.573-21.333 21.333-21.333h196c11.76 0 21.333 9.573 21.333 21.333v74.667c0 5.896 4.771 10.667 10.667 10.667s10.667-4.771 10.667-10.667v-74.673c0-23.532-19.13-42.667-42.66-42.667h-196c-23.535 0-42.67 19.135-42.67 42.667v426.66c0 23.53 19.135 42.67 42.667 42.67h196c23.531 0 42.667-19.135 42.667-42.667v-74.66c-0.01-5.9-4.78-10.67-10.67-10.67z"/>
      <path d="m482.54 248.14-128-117.33c-4.365-3.979-11.083-3.677-15.073 0.656-3.979 4.344-3.688 11.094 0.656 15.073l107.79 98.802h-335.24c-5.896 0-10.667 4.771-10.667 10.667s4.771 10.667 10.667 10.667h335.25l-107.79 98.802c-4.344 3.979-4.635 10.729-0.656 15.073 2.104 2.292 4.979 3.458 7.865 3.458 2.573 0 5.156-0.927 7.208-2.802l128-117.33c2.2-2.03 3.45-4.88 3.45-7.87s-1.25-5.844-3.458-7.865z"/>
    </g>
  </symbol>

</svg>
