<svg xmlns="http://www.w3.org/2000/svg" height="20" width="20" version="1.1" viewBox="0 0 20.000002 19.999999">
 <path d="m20 7.7763q0 0.26442-0.31249 0.57691l-4.3629 4.2547 1.0336 6.0095q0.01202 0.08413 0.01202 0.24038 0 0.2524-0.1262 0.42667-0.1262 0.17428-0.36658 0.17428-0.22836 0-0.48076-0.14423l-5.3972-2.836-5.3965 2.837q-0.26442 0.14423-0.48076 0.14423-0.2524 0-0.3786-0.17428-0.1262-0.175-0.1262-0.427 0-0.07211 0.024038-0.24038l1.0337-6.01-4.3749-4.2548q-0.3005-0.3245-0.3005-0.5769 0-0.4447 0.67306-0.5529l6.0335-0.8774 2.7043-5.4686q0.22836-0.49278 0.58893-0.49278t0.58893 0.49278l2.7043 5.4686 6.0335 0.87739q0.67306 0.10817 0.67306 0.55287z" stroke-width=".012019" fill="#d9b40f"/>
</svg>
