<svg xmlns="http://www.w3.org/2000/svg" height="20" width="20" version="1.1" viewBox="0 0 20.000002 19.999999">
 <g transform="translate(.089572 .12435)">
  <path d="m9.8248 0.41654c0.0555-0.02129 0.1138-0.03193 0.175-0.03193 0.2402 0 0.4362 0.16426 0.5892 0.49278l2.704 5.4686 6.034 0.8774c0.448 0.0721 0.673 0.2564 0.673 0.5529 0 0.1763-0.105 0.3686-0.313 0.5769l-4.363 4.2548 1.034 6.009c0.008 0.057 0.012 0.137 0.012 0.241 0 0.168-0.042 0.31-0.126 0.426-0.084 0.117-0.207 0.175-0.367 0.175-0.152 0-0.312-0.048-0.481-0.144l-5.3962-2.837-0.15 0.079" fill-opacity=".94118" stroke-width=".012019" fill="#fff"/>
  <path d="m9.8498 16.557-5.2465 2.758c-0.1763 0.096-0.3366 0.144-0.4808 0.144-0.1682 0-0.2944-0.058-0.3786-0.175-0.0841-0.116-0.1262-0.258-0.1262-0.426 0-0.048 0.008-0.128 0.0241-0.241l1.0336-6.009-4.3749-4.2548c-0.20034-0.2163-0.3005-0.4086-0.3005-0.5769 0-0.2965 0.22435-0.4808 0.67306-0.5529l6.0335-0.8774 2.7043-5.4686c0.1135-0.24491 0.2514-0.39852 0.4139-0.46086" stroke-width=".012019" fill="#dab50f"/>
  <g transform="translate(-.17913 -1032.5)">
   <g stroke-opacity=".98238" transform="matrix(.22217 0 0 .22217 .75786 1033.2)" stroke="#d9b40f" stroke-width="6.8224" fill="none">
    <title>Star</title>
    <path d="m1664 889q0-22-26-48l-363-354 86-500q1-7 1-20 0-21-10.5-35.5t-30.5-14.5q-19 0-40 12l-449 236-449-236q-22-12-40-12-21 0-31.5 14.5t-10.5 35.5q0 6 2 20l86 500-364 354q-25 27-25 48 0 37 56 46l502 73 225 455q19 41 49 41t49-41l225-455 502-73q56-9 56-46z" stroke-opacity=".98238" transform="matrix(.05 0 0 -.05 0 76.8)" stroke="#d9b40f" stroke-width="136.45" fill="none"/>
   </g>
  </g>
 </g>
</svg>
