<svg xmlns="http://www.w3.org/2000/svg" height="20" width="20" version="1.1" viewBox="0 0 20.000002 19.999999">
 <g transform="translate(0 -1032.4)">
  <g stroke-opacity=".98238" transform="matrix(.22217 0 0 .22217 .75786 1033.2)" stroke="#d9b40f" stroke-width="6.8224" fill="none">
   <title>Star</title>
   <path d="m1664 889q0-22-26-48l-363-354 86-500q1-7 1-20 0-21-10.5-35.5t-30.5-14.5q-19 0-40 12l-449 236-449-236q-22-12-40-12-21 0-31.5 14.5t-10.5 35.5q0 6 2 20l86 500-364 354q-25 27-25 48 0 37 56 46l502 73 225 455q19 41 49 41t49-41l225-455 502-73q56-9 56-46z" stroke-opacity=".98238" transform="matrix(.05 0 0 -.05 0 76.8)" stroke="#d9b40f" stroke-width="136.45" fill="none"/>
  </g>
 </g>
</svg>
